# xmcd
#
# Track frame offsets:
#	150
#	7260
#	24406
#	43588
#	67189
#	82290
#	97570
#	117632
#	136363
#	162141
#	186478
#	201987
#	223015
#
# Disc length: 3088 seconds
#
# Revision: 1
# Processed by: cddbd v1.5.1PL0 Copyright (c) Steve Scherf et al.
# Submitted via: audiograbber 1.83.01
#
DISCID=c10c0e0d
DTITLE=Pickup the Harp - Destination
DYEAR=1998
DGENRE=Blues
TTITLE0=Railway Station
TTITLE1=Destination
TTITLE2=Hand It Over
TTITLE3=I'll Think About it
TTITLE4=My Blues
TTITLE5=Banks Of The River
TTITLE6=Maybe Tomorrow
TTITLE7=If God Is Truth
TTITLE8=Ascension Day
TTITLE9=Steady Rollin Man
TTITLE10=Be Free
TTITLE11=Santa Lati
TTITLE12=ROMANze
EXTD=
EXTT0=
EXTT1=
EXTT2=
EXTT3=
EXTT4=
EXTT5=
EXTT6=
EXTT7=
EXTT8=
EXTT9=
EXTT10=
EXTT11=
EXTT12=
PLAYORDER=
